<?xml version="1.0" encoding="UTF-8"?>
<svg width="285px" height="190px" viewBox="0 0 285 190" version="1.1" xmlns="http://www.w3.org/2000/svg" xmlns:xlink="http://www.w3.org/1999/xlink">
    <!-- Generator: Sketch 56 (81588) - https://sketch.com -->
    <title>Group</title>
    <desc>Created with Sketch.</desc>
    <g id="Page-1" stroke="none" stroke-width="1" fill="none" fill-rule="evenodd">
        <g id="Group" transform="translate(0.522000, 0.934000)">
            <polygon id="Fill-2" fill="#174489" points="-2.84217094e-14 189.07 283.602 189.07 283.602 -2.84217094e-14 -2.84217094e-14 -2.84217094e-14"></polygon>
            <polygon id="Fill-3" fill="#FFF101" points="135.7583 41.1949 141.7423 36.8279 147.7273 41.1949 145.4493 34.1329 151.5283 29.7649 144.0353 29.7649 141.7423 22.6169 139.4493 29.7729 131.9613 29.7649 138.0353 34.1329"></polygon>
            <polygon id="Fill-4" fill="#FFF101" points="104.7895 49.5152 110.7735 45.1482 116.7545 49.5152 114.4805 42.4532 120.5555 38.0852 113.0625 38.0852 110.7695 30.9292 108.4775 38.0932 100.9885 38.0852 107.0625 42.4532"></polygon>
            <polygon id="Fill-5" fill="#FFF101" points="88.1137 53.6402 85.8207 60.8042 78.3327 60.7962 84.4067 65.1632 82.1297 72.2262 88.1137 67.8592 94.0977 72.2262 91.8207 65.1632 97.8947 60.7962 90.4067 60.7962"></polygon>
            <polygon id="Fill-6" fill="#FFF101" points="79.8012 98.7887 85.7812 103.1557 83.5082 96.0937 89.5822 91.7267 82.0942 91.7267 79.8012 84.5697 77.5082 91.7417 70.0162 91.7267 76.0942 96.0937 73.8172 103.1557"></polygon>
            <polygon id="Fill-7" fill="#FFF101" points="90.4067 122.7496 88.1137 115.5936 85.8207 122.7576 78.3327 122.7496 84.4067 127.1166 82.1297 134.1796 88.1137 129.8046 94.0977 134.1796 91.8207 127.1166 97.8947 122.7496"></polygon>
            <polygon id="Fill-8" fill="#FFF101" points="113.1098 145.4527 110.8168 138.3047 108.5278 145.4607 101.0358 145.4527 107.1098 149.8197 104.8368 156.8827 110.8208 152.5147 116.8008 156.8827 114.5278 149.8197 120.6018 145.4527"></polygon>
            <polygon id="Fill-9" fill="#FFF101" points="144.0395 153.6793 141.7465 146.5233 139.4575 153.6873 131.9655 153.6793 138.0395 158.0463 135.7665 165.1093 141.7505 160.7413 147.7305 165.1093 145.4535 158.0463 151.5315 153.6793"></polygon>
            <polygon id="Fill-10" fill="#FFF101" points="174.9692 145.4527 172.6802 138.3047 170.3832 145.4607 162.8992 145.4527 168.9692 149.8197 166.6962 156.8827 172.6802 152.5147 178.6642 156.8827 176.3832 149.8197 182.4612 145.4527"></polygon>
            <polygon id="Fill-11" fill="#FFF101" points="197.6801 122.7496 195.3831 115.5936 193.0861 122.7576 185.6021 122.7496 191.6801 127.1166 189.3991 134.1796 195.3831 129.8046 201.3681 134.1796 199.0861 127.1166 205.1641 122.7496"></polygon>
            <polygon id="Fill-12" fill="#FFF101" points="213.3911 91.6402 205.8991 91.6402 203.6021 84.4842 201.3131 91.6482 193.8211 91.6402 199.8991 96.0072 197.6251 103.0702 203.6021 98.6952 209.5861 103.0702 207.3131 96.0072"></polygon>
            <polygon id="Fill-13" fill="#FFF101" points="189.3989 72.1324 195.3829 67.7654 201.3679 72.1324 199.0869 65.0704 205.1649 60.7104 197.6799 60.7104 195.3829 53.5544 193.0869 60.7184 185.6019 60.7104 191.6799 65.0704"></polygon>
            <polygon id="Fill-14" fill="#FFF101" points="172.7661 30.9371 170.4771 38.1011 162.9851 38.0851 169.0551 42.4601 166.7821 49.5231 172.7741 45.1481 178.7501 49.5231 176.4771 42.4601 182.5551 38.0851 175.0551 38.0851"></polygon>
        </g>
    </g>
</svg>